<svg xmlns="http://www.w3.org/2000/svg" xmlns:xlink="http://www.w3.org/1999/xlink" width="89" zoomAndPan="magnify" viewBox="0 0 66.75 47.25" height="63" preserveAspectRatio="xMidYMid meet" version="1.0"><defs><g/><clipPath id="54ed93020e"><path d="M 9.488281 22.765625 L 13.558594 22.765625 L 13.558594 26.457031 L 9.488281 26.457031 Z M 9.488281 22.765625 " clip-rule="nonzero"/></clipPath></defs><g clip-path="url(#54ed93020e)"><path fill="#4ca0ff" d="M 9.488281 22.765625 L 13.554688 22.765625 L 13.554688 26.457031 L 9.488281 26.457031 Z M 9.488281 22.765625 " fill-opacity="1" fill-rule="nonzero"/></g><g fill="#4ca0ff" fill-opacity="1"><g transform="translate(9.539091, 34.00031)"><g><path d="M 10.28125 -0.921875 C 8.070312 -0.660156 6.191406 -0.8125 4.640625 -1.375 C 3.097656 -1.9375 1.890625 -2.835938 1.015625 -4.078125 C 0.140625 -5.328125 -0.398438 -6.835938 -0.609375 -8.609375 C -0.847656 -10.585938 -0.644531 -12.359375 0 -13.921875 C 0.632812 -15.492188 1.664062 -16.773438 3.09375 -17.765625 C 4.53125 -18.765625 6.328125 -19.390625 8.484375 -19.640625 C 10.503906 -19.878906 12.101562 -19.660156 13.28125 -18.984375 C 14.457031 -18.304688 15.128906 -17.269531 15.296875 -15.875 C 15.410156 -14.851562 15.21875 -14.007812 14.71875 -13.34375 C 14.226562 -12.675781 13.453125 -12.28125 12.390625 -12.15625 C 11.796875 -12.09375 11.273438 -12.113281 10.828125 -12.21875 C 10.378906 -12.320312 9.929688 -12.421875 9.484375 -12.515625 C 9.035156 -12.609375 8.523438 -12.625 7.953125 -12.5625 C 7.460938 -12.5 7.015625 -12.367188 6.609375 -12.171875 C 6.210938 -11.984375 5.90625 -11.695312 5.6875 -11.3125 C 5.476562 -10.9375 5.410156 -10.429688 5.484375 -9.796875 C 5.578125 -8.992188 5.890625 -8.445312 6.421875 -8.15625 C 6.953125 -7.863281 7.628906 -7.765625 8.453125 -7.859375 C 8.867188 -7.910156 9.332031 -8 9.84375 -8.125 C 10.351562 -8.25 10.859375 -8.363281 11.359375 -8.46875 C 11.867188 -8.582031 12.304688 -8.660156 12.671875 -8.703125 C 13.578125 -8.816406 14.332031 -8.648438 14.9375 -8.203125 C 15.539062 -7.765625 15.898438 -7.03125 16.015625 -6 C 16.171875 -4.675781 15.789062 -3.5625 14.875 -2.65625 C 13.957031 -1.75 12.425781 -1.171875 10.28125 -0.921875 Z M 10.28125 -0.921875 "/></g></g></g><g fill="#4ca0ff" fill-opacity="1"><g transform="translate(25.693976, 32.094671)"><g><path d="M 8.875 0.28125 C 7.925781 0.300781 7.207031 0.117188 6.71875 -0.265625 C 6.226562 -0.660156 5.976562 -1.226562 5.96875 -1.96875 C 5.957031 -2.375 6.03125 -2.804688 6.1875 -3.265625 C 6.34375 -3.734375 6.550781 -4.1875 6.8125 -4.625 L 6.96875 -4.28125 C 6.5 -4.070312 5.921875 -3.898438 5.234375 -3.765625 C 4.546875 -3.628906 3.851562 -3.550781 3.15625 -3.53125 C 2.09375 -3.507812 1.300781 -3.757812 0.78125 -4.28125 C 0.269531 -4.800781 0.00390625 -5.566406 -0.015625 -6.578125 C -0.0234375 -7.253906 0.078125 -8.046875 0.296875 -8.953125 C 0.523438 -9.859375 0.828125 -10.789062 1.203125 -11.75 C 1.585938 -12.707031 2.007812 -13.578125 2.46875 -14.359375 C 3.289062 -15.753906 4.191406 -16.828125 5.171875 -17.578125 C 6.160156 -18.335938 7.390625 -18.726562 8.859375 -18.75 C 10.378906 -18.789062 11.460938 -18.46875 12.109375 -17.78125 C 12.765625 -17.101562 13.101562 -16.113281 13.125 -14.8125 C 13.144531 -13.988281 13.066406 -13.035156 12.890625 -11.953125 C 12.722656 -10.867188 12.472656 -9.78125 12.140625 -8.6875 L 11.78125 -8.953125 C 11.988281 -9.054688 12.207031 -9.128906 12.4375 -9.171875 C 12.675781 -9.222656 12.882812 -9.25 13.0625 -9.25 C 14.65625 -9.28125 15.46875 -8.460938 15.5 -6.796875 C 15.519531 -5.941406 15.289062 -5.285156 14.8125 -4.828125 C 14.34375 -4.378906 13.707031 -4.148438 12.90625 -4.140625 C 12.644531 -4.128906 12.390625 -4.140625 12.140625 -4.171875 C 11.898438 -4.210938 11.691406 -4.269531 11.515625 -4.34375 L 11.71875 -4.46875 C 11.851562 -4.25 11.960938 -3.960938 12.046875 -3.609375 C 12.128906 -3.265625 12.175781 -2.925781 12.1875 -2.59375 C 12.207031 -1.675781 11.929688 -0.972656 11.359375 -0.484375 C 10.785156 0.00390625 9.957031 0.257812 8.875 0.28125 Z M 5.09375 -8.375 C 5.476562 -8.382812 5.820312 -8.488281 6.125 -8.6875 C 6.4375 -8.894531 6.703125 -9.191406 6.921875 -9.578125 C 7.148438 -9.972656 7.316406 -10.429688 7.421875 -10.953125 C 7.535156 -11.484375 7.585938 -12.0625 7.578125 -12.6875 C 7.566406 -13.144531 7.492188 -13.476562 7.359375 -13.6875 C 7.222656 -13.894531 7.046875 -14 6.828125 -14 C 6.460938 -13.988281 6.109375 -13.851562 5.765625 -13.59375 C 5.429688 -13.332031 5.132812 -12.988281 4.875 -12.5625 C 4.625 -12.144531 4.425781 -11.6875 4.28125 -11.1875 C 4.132812 -10.695312 4.066406 -10.21875 4.078125 -9.75 C 4.085938 -9.257812 4.1875 -8.90625 4.375 -8.6875 C 4.5625 -8.476562 4.800781 -8.375 5.09375 -8.375 Z M 5.09375 -8.375 "/></g></g></g><g fill="#4ca0ff" fill-opacity="1"><g transform="translate(40.592995, 31.721656)"><g><path d="M 3.40625 0.515625 C 2.832031 0.472656 2.363281 0.304688 2 0.015625 C 1.644531 -0.265625 1.410156 -0.671875 1.296875 -1.203125 C 1.179688 -1.742188 1.113281 -2.609375 1.09375 -3.796875 C 1.070312 -4.992188 1.113281 -6.289062 1.21875 -7.6875 C 1.332031 -9.164062 1.476562 -10.609375 1.65625 -12.015625 C 1.832031 -13.429688 2.066406 -14.664062 2.359375 -15.71875 C 2.617188 -16.675781 2.976562 -17.375 3.4375 -17.8125 C 3.894531 -18.25 4.546875 -18.4375 5.390625 -18.375 C 6.066406 -18.320312 6.613281 -18.132812 7.03125 -17.8125 C 7.457031 -17.5 7.757812 -17.007812 7.9375 -16.34375 C 8.113281 -15.675781 8.160156 -14.800781 8.078125 -13.71875 C 8.066406 -13.457031 8.046875 -13.175781 8.015625 -12.875 C 7.984375 -12.582031 7.9375 -12.269531 7.875 -11.9375 L 7.984375 -11.9375 C 8.890625 -13.59375 9.765625 -14.867188 10.609375 -15.765625 C 11.460938 -16.671875 12.273438 -17.285156 13.046875 -17.609375 C 13.828125 -17.941406 14.546875 -18.085938 15.203125 -18.046875 C 16.015625 -17.984375 16.617188 -17.65625 17.015625 -17.0625 C 17.421875 -16.476562 17.59375 -15.773438 17.53125 -14.953125 C 17.445312 -13.816406 16.867188 -12.769531 15.796875 -11.8125 C 14.734375 -10.863281 13.03125 -9.878906 10.6875 -8.859375 L 10.9375 -9.515625 C 12.8125 -8.066406 14.148438 -6.722656 14.953125 -5.484375 C 15.765625 -4.242188 16.125 -2.976562 16.03125 -1.6875 C 15.96875 -0.832031 15.648438 -0.171875 15.078125 0.296875 C 14.515625 0.765625 13.742188 0.96875 12.765625 0.90625 C 11.929688 0.84375 11.164062 0.539062 10.46875 0 C 9.78125 -0.53125 9.171875 -1.367188 8.640625 -2.515625 C 8.117188 -3.660156 7.6875 -5.179688 7.34375 -7.078125 L 7.234375 -7.09375 C 7.242188 -6.863281 7.238281 -6.628906 7.21875 -6.390625 C 7.207031 -6.160156 7.191406 -5.929688 7.171875 -5.703125 C 7.003906 -3.398438 6.644531 -1.765625 6.09375 -0.796875 C 5.539062 0.171875 4.644531 0.609375 3.40625 0.515625 Z M 3.40625 0.515625 "/></g></g></g></svg>