<svg xmlns="http://www.w3.org/2000/svg" xmlns:xlink="http://www.w3.org/1999/xlink" width="25" zoomAndPan="magnify" viewBox="0 0 18.75 16.5" height="22" preserveAspectRatio="xMidYMid meet" version="1.0"><defs><clipPath id="519114df33"><path d="M 0.15625 0 L 17.625 0 L 17.625 4 L 0.15625 4 Z M 0.15625 0 " clip-rule="nonzero"/></clipPath><clipPath id="885e07f58f"><path d="M 0.15625 6 L 17.625 6 L 17.625 10 L 0.15625 10 Z M 0.15625 6 " clip-rule="nonzero"/></clipPath><clipPath id="9d0158697f"><path d="M 0.15625 12 L 17.625 12 L 17.625 15.285156 L 0.15625 15.285156 Z M 0.15625 12 " clip-rule="nonzero"/></clipPath><clipPath id="0d806aee6d"><path d="M 0.15625 9 L 9 9 L 9 16.015625 L 0.15625 16.015625 Z M 0.15625 9 " clip-rule="nonzero"/></clipPath></defs><g clip-path="url(#519114df33)"><path fill="#ea51a1" d="M 1.714844 3.121094 L 16.167969 3.121094 C 17.027344 3.121094 17.726562 2.421875 17.726562 1.5625 C 17.726562 0.699219 17.027344 0.00390625 16.167969 0.00390625 L 1.714844 0.00390625 C 0.851562 0.00390625 0.15625 0.699219 0.15625 1.5625 C 0.15625 2.421875 0.851562 3.121094 1.714844 3.121094 Z M 1.714844 3.121094 " fill-opacity="1" fill-rule="nonzero"/></g><g clip-path="url(#885e07f58f)"><path fill="#ea51a1" d="M 16.167969 6.105469 L 1.714844 6.105469 C 0.851562 6.105469 0.15625 6.804688 0.15625 7.667969 C 0.15625 8.527344 0.851562 9.226562 1.714844 9.226562 L 16.167969 9.226562 C 17.027344 9.226562 17.726562 8.527344 17.726562 7.667969 C 17.726562 6.804688 17.027344 6.105469 16.167969 6.105469 Z M 16.167969 6.105469 " fill-opacity="1" fill-rule="nonzero"/></g><g clip-path="url(#9d0158697f)"><path fill="#ea51a1" d="M 16.167969 12.210938 L 1.714844 12.210938 C 0.851562 12.210938 0.15625 12.910156 0.15625 13.769531 C 0.15625 14.632812 0.851562 15.328125 1.714844 15.328125 L 16.167969 15.328125 C 17.027344 15.328125 17.726562 14.632812 17.726562 13.769531 C 17.726562 12.910156 17.027344 12.210938 16.167969 12.210938 Z M 16.167969 12.210938 " fill-opacity="1" fill-rule="nonzero"/></g><g clip-path="url(#0d806aee6d)"><path stroke-linecap="butt" transform="matrix(0.674001, 0.274992, -0.274992, 0.674001, 2.643905, 13.322879)" fill="none" stroke-linejoin="miter" d="M 0.00192838 0.499624 L 3.294356 0.5009 " stroke="#ea51a1" stroke-width="1" stroke-opacity="1" stroke-miterlimit="4"/></g></svg>