<svg xmlns="http://www.w3.org/2000/svg" xmlns:xlink="http://www.w3.org/1999/xlink" width="22" zoomAndPan="magnify" viewBox="0 0 16.5 16.5" height="22" preserveAspectRatio="xMidYMid meet" version="1.0"><defs><clipPath id="dc43cf0713"><path d="M 0 0 L 16.015625 0 L 16.015625 16.015625 L 0 16.015625 Z M 0 0 " clip-rule="nonzero"/></clipPath></defs><path fill="#ea51a1" d="M 3.6875 1.472656 L 7.898438 5.6875 L 12.113281 1.472656 C 13.585938 0 15.796875 2.210938 14.324219 3.6875 L 10.109375 7.898438 L 14.324219 12.113281 C 15.796875 13.585938 13.585938 15.796875 12.113281 14.324219 L 7.898438 10.109375 L 3.6875 14.324219 C 2.210938 15.796875 0 13.585938 1.472656 12.113281 L 5.6875 7.898438 L 1.472656 3.6875 C 0 2.210938 2.210938 0 3.6875 1.472656 Z M 3.6875 1.472656 " fill-opacity="1" fill-rule="evenodd"/><g clip-path="url(#dc43cf0713)"><path stroke-linecap="butt" transform="matrix(0.61589, -0.388044, 0.388044, 0.61589, 6.085795, 7.324463)" fill="none" stroke-linejoin="miter" d="M 0.00276385 1.999217 L 3.376407 2.000075 " stroke="#ea51a1" stroke-width="4" stroke-opacity="1" stroke-miterlimit="4"/></g></svg>