<svg xmlns="http://www.w3.org/2000/svg" xmlns:xlink="http://www.w3.org/1999/xlink" width="39" zoomAndPan="magnify" viewBox="0 0 29.25 25.499999" height="34" preserveAspectRatio="xMidYMid meet" version="1.2"><defs><clipPath id="30fcb71f14"><path d="M 1.335938 0.0742188 L 25.980469 0.0742188 L 25.980469 24.914062 L 1.335938 24.914062 Z M 1.335938 0.0742188 "/></clipPath><clipPath id="6c1fa78920"><path d="M 13.660156 0.0742188 C 6.851562 0.0742188 1.335938 5.625 1.335938 12.472656 C 1.335938 19.316406 6.851562 24.867188 13.660156 24.867188 C 20.464844 24.867188 25.980469 19.316406 25.980469 12.472656 C 25.980469 5.625 20.464844 0.0742188 13.660156 0.0742188 Z M 13.660156 0.0742188 "/></clipPath></defs><g id="6f5de29146"><g clip-rule="nonzero" clip-path="url(#30fcb71f14)"><g clip-rule="nonzero" clip-path="url(#6c1fa78920)"><path style=" stroke:none;fill-rule:nonzero;fill:#ea51a1;fill-opacity:1;" d="M 1.335938 0.0742188 L 25.980469 0.0742188 L 25.980469 24.914062 L 1.335938 24.914062 Z M 1.335938 0.0742188 "/></g></g><g style="fill:#ffffff;fill-opacity:1;"><g transform="translate(5.843443, 15.396278)"><path style="stroke:none" d="M 0.359375 -3.0625 C 0.359375 -3.5 0.441406 -3.910156 0.609375 -4.296875 C 0.773438 -4.679688 1.003906 -5.015625 1.296875 -5.296875 C 1.578125 -5.585938 1.910156 -5.8125 2.296875 -5.96875 C 2.679688 -6.132812 3.085938 -6.21875 3.515625 -6.21875 C 3.953125 -6.21875 4.363281 -6.132812 4.75 -5.96875 C 5.132812 -5.8125 5.46875 -5.585938 5.75 -5.296875 C 6.039062 -5.015625 6.269531 -4.679688 6.4375 -4.296875 C 6.601562 -3.910156 6.6875 -3.5 6.6875 -3.0625 C 6.6875 -2.625 6.601562 -2.210938 6.4375 -1.828125 C 6.269531 -1.453125 6.039062 -1.125 5.75 -0.84375 C 5.46875 -0.550781 5.132812 -0.320312 4.75 -0.15625 C 4.363281 0.0078125 3.953125 0.09375 3.515625 0.09375 C 3.085938 0.09375 2.679688 0.0078125 2.296875 -0.15625 C 1.910156 -0.320312 1.578125 -0.550781 1.296875 -0.84375 C 1.003906 -1.125 0.773438 -1.453125 0.609375 -1.828125 C 0.441406 -2.210938 0.359375 -2.625 0.359375 -3.0625 Z M 2.390625 -3.0625 C 2.390625 -2.894531 2.414062 -2.738281 2.46875 -2.59375 C 2.53125 -2.445312 2.613281 -2.320312 2.71875 -2.21875 C 2.8125 -2.113281 2.925781 -2.03125 3.0625 -1.96875 C 3.207031 -1.90625 3.359375 -1.875 3.515625 -1.875 C 3.679688 -1.875 3.832031 -1.90625 3.96875 -1.96875 C 4.113281 -2.03125 4.238281 -2.113281 4.34375 -2.21875 C 4.445312 -2.320312 4.523438 -2.445312 4.578125 -2.59375 C 4.628906 -2.738281 4.65625 -2.894531 4.65625 -3.0625 C 4.65625 -3.226562 4.628906 -3.382812 4.578125 -3.53125 C 4.523438 -3.675781 4.445312 -3.800781 4.34375 -3.90625 C 4.238281 -4.007812 4.113281 -4.09375 3.96875 -4.15625 C 3.832031 -4.21875 3.679688 -4.25 3.515625 -4.25 C 3.359375 -4.25 3.207031 -4.21875 3.0625 -4.15625 C 2.925781 -4.09375 2.8125 -4.007812 2.71875 -3.90625 C 2.613281 -3.800781 2.53125 -3.675781 2.46875 -3.53125 C 2.414062 -3.382812 2.390625 -3.226562 2.390625 -3.0625 Z M 2.390625 -3.0625 "/></g></g><g style="fill:#ffffff;fill-opacity:1;"><g transform="translate(12.895013, 15.396278)"><path style="stroke:none" d="M 6.28125 -0.890625 C 6.28125 -0.742188 6.253906 -0.609375 6.203125 -0.484375 C 6.148438 -0.367188 6.078125 -0.269531 5.984375 -0.1875 C 5.785156 0 5.535156 0.09375 5.234375 0.09375 L 1.578125 0.09375 C 1.296875 0.09375 1.054688 0.00390625 0.859375 -0.171875 C 0.765625 -0.253906 0.6875 -0.351562 0.625 -0.46875 C 0.5625 -0.59375 0.53125 -0.726562 0.53125 -0.875 C 0.53125 -1.007812 0.566406 -1.144531 0.640625 -1.28125 C 0.722656 -1.414062 0.828125 -1.554688 0.953125 -1.703125 C 1.078125 -1.847656 1.222656 -1.988281 1.390625 -2.125 C 1.554688 -2.269531 1.734375 -2.410156 1.921875 -2.546875 C 2.035156 -2.628906 2.144531 -2.707031 2.25 -2.78125 C 2.351562 -2.851562 2.460938 -2.921875 2.578125 -2.984375 L 3.171875 -3.375 C 3.304688 -3.457031 3.425781 -3.535156 3.53125 -3.609375 C 3.644531 -3.679688 3.738281 -3.742188 3.8125 -3.796875 C 3.957031 -3.910156 4.03125 -4.019531 4.03125 -4.125 C 4.03125 -4.238281 4 -4.328125 3.9375 -4.390625 C 3.875 -4.453125 3.796875 -4.5 3.703125 -4.53125 C 3.609375 -4.570312 3.515625 -4.59375 3.421875 -4.59375 C 3.316406 -4.59375 3.222656 -4.582031 3.140625 -4.5625 C 3.066406 -4.539062 2.984375 -4.503906 2.890625 -4.453125 C 2.703125 -4.367188 2.546875 -4.257812 2.421875 -4.125 C 2.359375 -4.0625 2.316406 -4 2.296875 -3.9375 C 2.210938 -3.820312 2.109375 -3.726562 1.984375 -3.65625 C 1.867188 -3.59375 1.753906 -3.554688 1.640625 -3.546875 C 1.515625 -3.523438 1.390625 -3.535156 1.265625 -3.578125 C 1.148438 -3.617188 1.039062 -3.6875 0.9375 -3.78125 C 0.851562 -3.875 0.796875 -3.988281 0.765625 -4.125 C 0.742188 -4.269531 0.742188 -4.410156 0.765625 -4.546875 C 0.785156 -4.722656 0.859375 -4.90625 0.984375 -5.09375 C 1.117188 -5.289062 1.304688 -5.476562 1.546875 -5.65625 C 1.773438 -5.820312 2.050781 -5.957031 2.375 -6.0625 C 2.707031 -6.175781 3.085938 -6.234375 3.515625 -6.234375 C 4.003906 -6.234375 4.414062 -6.175781 4.75 -6.0625 C 5.09375 -5.957031 5.367188 -5.820312 5.578125 -5.65625 C 5.785156 -5.488281 5.929688 -5.300781 6.015625 -5.09375 C 6.109375 -4.882812 6.15625 -4.675781 6.15625 -4.46875 C 6.144531 -4.238281 6.09375 -4.03125 6 -3.84375 C 5.90625 -3.65625 5.78125 -3.484375 5.625 -3.328125 C 5.46875 -3.171875 5.289062 -3.023438 5.09375 -2.890625 C 4.894531 -2.765625 4.695312 -2.640625 4.5 -2.515625 C 4.125 -2.296875 3.8125 -2.066406 3.5625 -1.828125 L 4.796875 -1.828125 C 4.972656 -1.828125 5.148438 -1.820312 5.328125 -1.8125 C 5.503906 -1.800781 5.664062 -1.765625 5.8125 -1.703125 C 5.957031 -1.648438 6.070312 -1.554688 6.15625 -1.421875 C 6.238281 -1.296875 6.28125 -1.117188 6.28125 -0.890625 Z M 6.28125 -0.890625 "/></g></g><g style="fill:#ffffff;fill-opacity:1;"><g transform="translate(19.712165, 15.396278)"><path style="stroke:none" d="M 0.359375 -0.90625 C 0.359375 -1.039062 0.382812 -1.171875 0.4375 -1.296875 C 0.488281 -1.421875 0.5625 -1.523438 0.65625 -1.609375 C 0.738281 -1.703125 0.84375 -1.773438 0.96875 -1.828125 C 1.09375 -1.878906 1.226562 -1.90625 1.375 -1.90625 C 1.507812 -1.90625 1.640625 -1.878906 1.765625 -1.828125 C 1.890625 -1.773438 2 -1.703125 2.09375 -1.609375 C 2.1875 -1.523438 2.257812 -1.421875 2.3125 -1.296875 C 2.363281 -1.171875 2.390625 -1.039062 2.390625 -0.90625 C 2.390625 -0.757812 2.363281 -0.625 2.3125 -0.5 C 2.257812 -0.382812 2.1875 -0.28125 2.09375 -0.1875 C 2 -0.101562 1.890625 -0.0351562 1.765625 0.015625 C 1.640625 0.0664062 1.507812 0.09375 1.375 0.09375 C 1.226562 0.09375 1.09375 0.0664062 0.96875 0.015625 C 0.84375 -0.0351562 0.738281 -0.101562 0.65625 -0.1875 C 0.5625 -0.28125 0.488281 -0.382812 0.4375 -0.5 C 0.382812 -0.625 0.359375 -0.757812 0.359375 -0.90625 Z M 0.359375 -0.90625 "/></g></g></g></svg>