<svg xmlns="http://www.w3.org/2000/svg" xmlns:xlink="http://www.w3.org/1999/xlink" width="39" zoomAndPan="magnify" viewBox="0 0 29.25 25.499999" height="34" preserveAspectRatio="xMidYMid meet" version="1.2"><defs><clipPath id="ae95e16360"><path d="M 1.335938 0.0742188 L 25.980469 0.0742188 L 25.980469 24.914062 L 1.335938 24.914062 Z M 1.335938 0.0742188 "/></clipPath><clipPath id="4d86615665"><path d="M 13.660156 0.0742188 C 6.851562 0.0742188 1.335938 5.625 1.335938 12.472656 C 1.335938 19.316406 6.851562 24.867188 13.660156 24.867188 C 20.464844 24.867188 25.980469 19.316406 25.980469 12.472656 C 25.980469 5.625 20.464844 0.0742188 13.660156 0.0742188 Z M 13.660156 0.0742188 "/></clipPath></defs><g id="62e880610a"><g clip-rule="nonzero" clip-path="url(#ae95e16360)"><g clip-rule="nonzero" clip-path="url(#4d86615665)"><path style=" stroke:none;fill-rule:nonzero;fill:#ea51a1;fill-opacity:1;" d="M 1.335938 0.0742188 L 25.980469 0.0742188 L 25.980469 24.914062 L 1.335938 24.914062 Z M 1.335938 0.0742188 "/></g></g><g style="fill:#ffffff;fill-opacity:1;"><g transform="translate(7.34022, 15.396278)"><path style="stroke:none" d="M 0.359375 -3.0625 C 0.359375 -3.5 0.441406 -3.910156 0.609375 -4.296875 C 0.773438 -4.679688 1.003906 -5.015625 1.296875 -5.296875 C 1.578125 -5.585938 1.910156 -5.8125 2.296875 -5.96875 C 2.679688 -6.132812 3.085938 -6.21875 3.515625 -6.21875 C 3.953125 -6.21875 4.363281 -6.132812 4.75 -5.96875 C 5.132812 -5.8125 5.46875 -5.585938 5.75 -5.296875 C 6.039062 -5.015625 6.269531 -4.679688 6.4375 -4.296875 C 6.601562 -3.910156 6.6875 -3.5 6.6875 -3.0625 C 6.6875 -2.625 6.601562 -2.210938 6.4375 -1.828125 C 6.269531 -1.453125 6.039062 -1.125 5.75 -0.84375 C 5.46875 -0.550781 5.132812 -0.320312 4.75 -0.15625 C 4.363281 0.0078125 3.953125 0.09375 3.515625 0.09375 C 3.085938 0.09375 2.679688 0.0078125 2.296875 -0.15625 C 1.910156 -0.320312 1.578125 -0.550781 1.296875 -0.84375 C 1.003906 -1.125 0.773438 -1.453125 0.609375 -1.828125 C 0.441406 -2.210938 0.359375 -2.625 0.359375 -3.0625 Z M 2.390625 -3.0625 C 2.390625 -2.894531 2.414062 -2.738281 2.46875 -2.59375 C 2.53125 -2.445312 2.613281 -2.320312 2.71875 -2.21875 C 2.8125 -2.113281 2.925781 -2.03125 3.0625 -1.96875 C 3.207031 -1.90625 3.359375 -1.875 3.515625 -1.875 C 3.679688 -1.875 3.832031 -1.90625 3.96875 -1.96875 C 4.113281 -2.03125 4.238281 -2.113281 4.34375 -2.21875 C 4.445312 -2.320312 4.523438 -2.445312 4.578125 -2.59375 C 4.628906 -2.738281 4.65625 -2.894531 4.65625 -3.0625 C 4.65625 -3.226562 4.628906 -3.382812 4.578125 -3.53125 C 4.523438 -3.675781 4.445312 -3.800781 4.34375 -3.90625 C 4.238281 -4.007812 4.113281 -4.09375 3.96875 -4.15625 C 3.832031 -4.21875 3.679688 -4.25 3.515625 -4.25 C 3.359375 -4.25 3.207031 -4.21875 3.0625 -4.15625 C 2.925781 -4.09375 2.8125 -4.007812 2.71875 -3.90625 C 2.613281 -3.800781 2.53125 -3.675781 2.46875 -3.53125 C 2.414062 -3.382812 2.390625 -3.226562 2.390625 -3.0625 Z M 2.390625 -3.0625 "/></g></g><g style="fill:#ffffff;fill-opacity:1;"><g transform="translate(14.39179, 15.396278)"><path style="stroke:none" d="M 2.96875 -5.84375 C 3.113281 -5.65625 3.1875 -5.441406 3.1875 -5.203125 L 3.1875 -0.90625 C 3.1875 -0.757812 3.160156 -0.625 3.109375 -0.5 C 3.054688 -0.382812 2.988281 -0.285156 2.90625 -0.203125 C 2.71875 -0.00390625 2.484375 0.09375 2.203125 0.09375 C 2.054688 0.09375 1.921875 0.0664062 1.796875 0.015625 C 1.679688 -0.0351562 1.578125 -0.109375 1.484375 -0.203125 C 1.398438 -0.285156 1.332031 -0.382812 1.28125 -0.5 C 1.226562 -0.625 1.203125 -0.757812 1.203125 -0.90625 L 1.203125 -3.6875 C 1.191406 -3.695312 1.171875 -3.703125 1.140625 -3.703125 C 1.109375 -3.703125 1.070312 -3.695312 1.03125 -3.6875 C 1.007812 -3.6875 0.988281 -3.679688 0.96875 -3.671875 C 0.945312 -3.671875 0.925781 -3.664062 0.90625 -3.65625 C 0.863281 -3.644531 0.816406 -3.640625 0.765625 -3.640625 C 0.671875 -3.640625 0.585938 -3.660156 0.515625 -3.703125 C 0.441406 -3.742188 0.378906 -3.796875 0.328125 -3.859375 C 0.222656 -3.992188 0.171875 -4.132812 0.171875 -4.28125 C 0.171875 -4.40625 0.203125 -4.519531 0.265625 -4.625 C 0.328125 -4.726562 0.414062 -4.84375 0.53125 -4.96875 L 1.421875 -5.859375 C 1.503906 -5.941406 1.585938 -6.015625 1.671875 -6.078125 C 1.765625 -6.140625 1.867188 -6.179688 1.984375 -6.203125 C 2.046875 -6.222656 2.113281 -6.226562 2.1875 -6.21875 C 2.269531 -6.21875 2.347656 -6.210938 2.421875 -6.203125 C 2.523438 -6.179688 2.625 -6.132812 2.71875 -6.0625 C 2.8125 -6 2.894531 -5.925781 2.96875 -5.84375 Z M 2.96875 -5.84375 "/></g></g><g style="fill:#ffffff;fill-opacity:1;"><g transform="translate(18.212185, 15.396278)"><path style="stroke:none" d="M 0.359375 -0.90625 C 0.359375 -1.039062 0.382812 -1.171875 0.4375 -1.296875 C 0.488281 -1.421875 0.5625 -1.523438 0.65625 -1.609375 C 0.738281 -1.703125 0.84375 -1.773438 0.96875 -1.828125 C 1.09375 -1.878906 1.226562 -1.90625 1.375 -1.90625 C 1.507812 -1.90625 1.640625 -1.878906 1.765625 -1.828125 C 1.890625 -1.773438 2 -1.703125 2.09375 -1.609375 C 2.1875 -1.523438 2.257812 -1.421875 2.3125 -1.296875 C 2.363281 -1.171875 2.390625 -1.039062 2.390625 -0.90625 C 2.390625 -0.757812 2.363281 -0.625 2.3125 -0.5 C 2.257812 -0.382812 2.1875 -0.28125 2.09375 -0.1875 C 2 -0.101562 1.890625 -0.0351562 1.765625 0.015625 C 1.640625 0.0664062 1.507812 0.09375 1.375 0.09375 C 1.226562 0.09375 1.09375 0.0664062 0.96875 0.015625 C 0.84375 -0.0351562 0.738281 -0.101562 0.65625 -0.1875 C 0.5625 -0.28125 0.488281 -0.382812 0.4375 -0.5 C 0.382812 -0.625 0.359375 -0.757812 0.359375 -0.90625 Z M 0.359375 -0.90625 "/></g></g></g></svg>