<svg xmlns="http://www.w3.org/2000/svg" xmlns:xlink="http://www.w3.org/1999/xlink" width="39" zoomAndPan="magnify" viewBox="0 0 29.25 25.499999" height="34" preserveAspectRatio="xMidYMid meet" version="1.2"><defs><clipPath id="5123b6f2e3"><path d="M 1.335938 0.0742188 L 25.980469 0.0742188 L 25.980469 24.914062 L 1.335938 24.914062 Z M 1.335938 0.0742188 "/></clipPath><clipPath id="c8c655719e"><path d="M 13.660156 0.0742188 C 6.851562 0.0742188 1.335938 5.625 1.335938 12.472656 C 1.335938 19.316406 6.851562 24.867188 13.660156 24.867188 C 20.464844 24.867188 25.980469 19.316406 25.980469 12.472656 C 25.980469 5.625 20.464844 0.0742188 13.660156 0.0742188 Z M 13.660156 0.0742188 "/></clipPath></defs><g id="096bb145a4"><g clip-rule="nonzero" clip-path="url(#5123b6f2e3)"><g clip-rule="nonzero" clip-path="url(#c8c655719e)"><path style=" stroke:none;fill-rule:nonzero;fill:#ea51a1;fill-opacity:1;" d="M 1.335938 0.0742188 L 25.980469 0.0742188 L 25.980469 24.914062 L 1.335938 24.914062 Z M 1.335938 0.0742188 "/></g></g><g style="fill:#ffffff;fill-opacity:1;"><g transform="translate(5.854868, 15.396278)"><path style="stroke:none" d="M 0.359375 -3.0625 C 0.359375 -3.5 0.441406 -3.910156 0.609375 -4.296875 C 0.773438 -4.679688 1.003906 -5.015625 1.296875 -5.296875 C 1.578125 -5.585938 1.910156 -5.8125 2.296875 -5.96875 C 2.679688 -6.132812 3.085938 -6.21875 3.515625 -6.21875 C 3.953125 -6.21875 4.363281 -6.132812 4.75 -5.96875 C 5.132812 -5.8125 5.46875 -5.585938 5.75 -5.296875 C 6.039062 -5.015625 6.269531 -4.679688 6.4375 -4.296875 C 6.601562 -3.910156 6.6875 -3.5 6.6875 -3.0625 C 6.6875 -2.625 6.601562 -2.210938 6.4375 -1.828125 C 6.269531 -1.453125 6.039062 -1.125 5.75 -0.84375 C 5.46875 -0.550781 5.132812 -0.320312 4.75 -0.15625 C 4.363281 0.0078125 3.953125 0.09375 3.515625 0.09375 C 3.085938 0.09375 2.679688 0.0078125 2.296875 -0.15625 C 1.910156 -0.320312 1.578125 -0.550781 1.296875 -0.84375 C 1.003906 -1.125 0.773438 -1.453125 0.609375 -1.828125 C 0.441406 -2.210938 0.359375 -2.625 0.359375 -3.0625 Z M 2.390625 -3.0625 C 2.390625 -2.894531 2.414062 -2.738281 2.46875 -2.59375 C 2.53125 -2.445312 2.613281 -2.320312 2.71875 -2.21875 C 2.8125 -2.113281 2.925781 -2.03125 3.0625 -1.96875 C 3.207031 -1.90625 3.359375 -1.875 3.515625 -1.875 C 3.679688 -1.875 3.832031 -1.90625 3.96875 -1.96875 C 4.113281 -2.03125 4.238281 -2.113281 4.34375 -2.21875 C 4.445312 -2.320312 4.523438 -2.445312 4.578125 -2.59375 C 4.628906 -2.738281 4.65625 -2.894531 4.65625 -3.0625 C 4.65625 -3.226562 4.628906 -3.382812 4.578125 -3.53125 C 4.523438 -3.675781 4.445312 -3.800781 4.34375 -3.90625 C 4.238281 -4.007812 4.113281 -4.09375 3.96875 -4.15625 C 3.832031 -4.21875 3.679688 -4.25 3.515625 -4.25 C 3.359375 -4.25 3.207031 -4.21875 3.0625 -4.15625 C 2.925781 -4.09375 2.8125 -4.007812 2.71875 -3.90625 C 2.613281 -3.800781 2.53125 -3.675781 2.46875 -3.53125 C 2.414062 -3.382812 2.390625 -3.226562 2.390625 -3.0625 Z M 2.390625 -3.0625 "/></g></g><g style="fill:#ffffff;fill-opacity:1;"><g transform="translate(12.906439, 15.396278)"><path style="stroke:none" d="M 5.828125 -2.625 C 5.992188 -2.394531 6.125 -2.140625 6.21875 -1.859375 C 6.3125 -1.578125 6.359375 -1.28125 6.359375 -0.96875 C 6.359375 -0.519531 6.273438 -0.113281 6.109375 0.25 C 5.941406 0.625 5.71875 0.945312 5.4375 1.21875 C 5.144531 1.488281 4.8125 1.695312 4.4375 1.84375 C 4.070312 2 3.6875 2.078125 3.28125 2.078125 C 3.039062 2.078125 2.800781 2.046875 2.5625 1.984375 C 2.332031 1.921875 2.113281 1.84375 1.90625 1.75 C 1.457031 1.53125 1.101562 1.269531 0.84375 0.96875 C 0.707031 0.8125 0.601562 0.65625 0.53125 0.5 C 0.457031 0.351562 0.421875 0.207031 0.421875 0.0625 C 0.421875 -0.15625 0.472656 -0.335938 0.578125 -0.484375 C 0.679688 -0.628906 0.8125 -0.726562 0.96875 -0.78125 C 1.070312 -0.820312 1.175781 -0.84375 1.28125 -0.84375 C 1.394531 -0.84375 1.503906 -0.820312 1.609375 -0.78125 C 1.734375 -0.726562 1.859375 -0.648438 1.984375 -0.546875 C 2.109375 -0.441406 2.234375 -0.335938 2.359375 -0.234375 C 2.484375 -0.128906 2.613281 -0.0390625 2.75 0.03125 C 2.90625 0.101562 3.070312 0.140625 3.25 0.140625 C 3.40625 0.140625 3.550781 0.109375 3.6875 0.046875 C 3.832031 -0.00390625 3.957031 -0.0859375 4.0625 -0.203125 C 4.164062 -0.304688 4.242188 -0.425781 4.296875 -0.5625 C 4.359375 -0.707031 4.390625 -0.867188 4.390625 -1.046875 C 4.390625 -1.390625 4.28125 -1.671875 4.0625 -1.890625 C 3.96875 -1.992188 3.847656 -2.078125 3.703125 -2.140625 C 3.554688 -2.203125 3.394531 -2.234375 3.21875 -2.234375 C 3.101562 -2.234375 3 -2.222656 2.90625 -2.203125 C 2.820312 -2.179688 2.742188 -2.160156 2.671875 -2.140625 C 2.597656 -2.117188 2.523438 -2.097656 2.453125 -2.078125 C 2.390625 -2.066406 2.320312 -2.0625 2.25 -2.0625 C 1.988281 -2.0625 1.78125 -2.125 1.625 -2.25 C 1.476562 -2.382812 1.40625 -2.539062 1.40625 -2.71875 C 1.40625 -2.851562 1.4375 -2.976562 1.5 -3.09375 C 1.570312 -3.21875 1.660156 -3.328125 1.765625 -3.421875 C 1.867188 -3.515625 1.984375 -3.597656 2.109375 -3.671875 C 2.242188 -3.753906 2.378906 -3.832031 2.515625 -3.90625 C 2.648438 -3.976562 2.78125 -4.046875 2.90625 -4.109375 C 3.03125 -4.171875 3.140625 -4.234375 3.234375 -4.296875 L 1.5625 -4.296875 C 1.238281 -4.296875 0.972656 -4.382812 0.765625 -4.5625 C 0.660156 -4.644531 0.578125 -4.75 0.515625 -4.875 C 0.453125 -5 0.421875 -5.132812 0.421875 -5.28125 C 0.421875 -5.425781 0.445312 -5.5625 0.5 -5.6875 C 0.5625 -5.8125 0.640625 -5.914062 0.734375 -6 C 0.929688 -6.1875 1.1875 -6.28125 1.5 -6.28125 L 5.109375 -6.28125 C 5.285156 -6.28125 5.445312 -6.226562 5.59375 -6.125 C 5.75 -6.019531 5.875 -5.894531 5.96875 -5.75 C 6.03125 -5.644531 6.070312 -5.53125 6.09375 -5.40625 C 6.125 -5.289062 6.128906 -5.179688 6.109375 -5.078125 C 6.097656 -4.960938 6.0625 -4.851562 6 -4.75 C 5.9375 -4.644531 5.851562 -4.554688 5.75 -4.484375 L 4.453125 -3.546875 C 4.742188 -3.492188 5.003906 -3.382812 5.234375 -3.21875 C 5.472656 -3.0625 5.671875 -2.863281 5.828125 -2.625 Z M 5.828125 -2.625 "/></g></g><g style="fill:#ffffff;fill-opacity:1;"><g transform="translate(19.710926, 15.396278)"><path style="stroke:none" d="M 0.359375 -0.90625 C 0.359375 -1.039062 0.382812 -1.171875 0.4375 -1.296875 C 0.488281 -1.421875 0.5625 -1.523438 0.65625 -1.609375 C 0.738281 -1.703125 0.84375 -1.773438 0.96875 -1.828125 C 1.09375 -1.878906 1.226562 -1.90625 1.375 -1.90625 C 1.507812 -1.90625 1.640625 -1.878906 1.765625 -1.828125 C 1.890625 -1.773438 2 -1.703125 2.09375 -1.609375 C 2.1875 -1.523438 2.257812 -1.421875 2.3125 -1.296875 C 2.363281 -1.171875 2.390625 -1.039062 2.390625 -0.90625 C 2.390625 -0.757812 2.363281 -0.625 2.3125 -0.5 C 2.257812 -0.382812 2.1875 -0.28125 2.09375 -0.1875 C 2 -0.101562 1.890625 -0.0351562 1.765625 0.015625 C 1.640625 0.0664062 1.507812 0.09375 1.375 0.09375 C 1.226562 0.09375 1.09375 0.0664062 0.96875 0.015625 C 0.84375 -0.0351562 0.738281 -0.101562 0.65625 -0.1875 C 0.5625 -0.28125 0.488281 -0.382812 0.4375 -0.5 C 0.382812 -0.625 0.359375 -0.757812 0.359375 -0.90625 Z M 0.359375 -0.90625 "/></g></g></g></svg>